<svg id="Camada_1" data-name="Camada 1" xmlns="http://www.w3.org/2000/svg" viewBox="0 0 1000 424.25"><defs><style>.cls-1{fill:#00c65e;}.cls-2{fill:#07272d;}</style></defs><path class="cls-1" d="M274,183.46c-11-15-30.48-19.22-30.48-19.22,13.82-14.15,20.17-27.68,20.17-44.44q0-18.76-10.56-27.13c-7-5.58-17.36-8.21-31-7.77s-30.14,3.48-49.37,9.2L85.81,119.68V200l83.93-24.7a234,234,0,0,1,41.61-8.71,107.89,107.89,0,0,1,25,0l-3.07,3.14c-.85.88-1.72,1.71-2.69,2.59-14.31,13.08-36,24-64.42,32.44L85.81,228.54V339.4l98.41-29.22c31-9.21,55.31-21.94,72.33-37.87,18.08-16.91,27.24-36.18,27.24-57.26C283.79,202.15,280.09,191.81,274,183.46Zm-33.35,73c-14.41,13.47-35.65,24.44-63.13,32.61l-63.39,18.86V243.3l58.79-17.49c31-9.21,55.24-21.43,72-36.27a23.74,23.74,0,0,1,11,7.48c3.32,4.11,5,10.17,5,18C260.89,230.13,254.25,243.67,240.61,256.44Z"/><path class="cls-2" d="M351.87,166.27a17.35,17.35,0,0,1-9.78-2.74,8.74,8.74,0,0,1-4.16-7.69,8.58,8.58,0,0,1,4.16-7.58,17.57,17.57,0,0,1,9.78-2.7,17.19,17.19,0,0,1,9.64,2.7,8.61,8.61,0,0,1,4.12,7.58,8.77,8.77,0,0,1-4.12,7.69A17,17,0,0,1,351.87,166.27ZM340.38,263.1V178.47h22.79V263.1Z"/><path class="cls-2" d="M466.17,209.55V263.1H443V215.53a28,28,0,0,0-1.8-10.32A14.44,14.44,0,0,0,435.1,198q-4.35-2.62-12-2.63a23.68,23.68,0,0,0-11.83,2.91,21.26,21.26,0,0,0-8.11,8,22.85,22.85,0,0,0-2.94,11.68V263.1H377.2V178.47h23.05v12.79A37.3,37.3,0,0,1,412,181.74a41.82,41.82,0,0,1,19.81-4.7q11.22,0,18.89,4a26.7,26.7,0,0,1,11.57,11.32A36.12,36.12,0,0,1,466.17,209.55Z"/><path class="cls-2" d="M565.05,213.61a26,26,0,0,0-11.18-8.92,37,37,0,0,0-13.37-2.95,29.14,29.14,0,0,0,12.27-3.67,26.43,26.43,0,0,0,13.77-24.22q0-9.09-4.34-15.38t-12.93-9.6q-8.6-3.31-21.57-3.31H479.32V263.1h47.95q15,0,24.32-4.14t13.63-11.6a34,34,0,0,0,4.3-17.25Q569.52,219.74,565.05,213.61Zm-31.52-49.76a14.44,14.44,0,0,1,7.37,4.82,13.84,13.84,0,0,1,2.49,8.61,14.44,14.44,0,0,1-6,12.31q-6,4.42-17.58,4.42h-18.4V162.29h20.42A38.54,38.54,0,0,1,533.53,163.85ZM540,241.74q-6.06,4.63-17.27,4.63h-21.3v-35.7h19.72a44.15,44.15,0,0,1,9.86,1,24.37,24.37,0,0,1,7.89,3.23,15.51,15.51,0,0,1,5.26,5.66,17,17,0,0,1,1.88,8.24Q546,237.13,540,241.74Z"/><path class="cls-2" d="M627,264.77q-14.73,0-25.95-5.62a43.29,43.29,0,0,1-17.57-15.58,41.41,41.41,0,0,1-6.36-22.79A41,41,0,0,1,583.5,198a43.37,43.37,0,0,1,17.57-15.42Q612.29,177,627,177t26,5.58A43.43,43.43,0,0,1,670.54,198a41,41,0,0,1,6.36,22.75,41.41,41.41,0,0,1-6.36,22.79A43.35,43.35,0,0,1,653,259.15Q641.75,264.77,627,264.77Zm0-17.13A28,28,0,0,0,641,244.29a23.69,23.69,0,0,0,9.29-9.36,28.77,28.77,0,0,0,3.33-14.15,28.28,28.28,0,0,0-3.33-14.06,23.32,23.32,0,0,0-9.29-9.21,31.33,31.33,0,0,0-27.83,0,23.19,23.19,0,0,0-9.34,9.21,28.28,28.28,0,0,0-3.33,14.06,28.77,28.77,0,0,0,3.33,14.15,23.56,23.56,0,0,0,9.34,9.36A28.05,28.05,0,0,0,627,247.64Z"/><path class="cls-2" d="M711.17,145.56V263.1h-22.7V145.56Z"/><path class="cls-2" d="M763.59,264.85a72.74,72.74,0,0,1-15.82-1.67,47.51,47.51,0,0,1-13.33-5,27.33,27.33,0,0,1-9.2-8.33,20,20,0,0,1-3.38-11.52v-1.83h23v1.44q0,5.18,5.22,7.77t14.24,2.59a42.76,42.76,0,0,0,9.25-1,18.18,18.18,0,0,0,7-2.95,6.12,6.12,0,0,0,2.68-5.1q0-5-5.66-7.17t-17.75-3.91a122.43,122.43,0,0,1-13.15-2.79,51.73,51.73,0,0,1-11.79-4.7,25.77,25.77,0,0,1-8.5-7.33,17.57,17.57,0,0,1-3.2-10.68,19.47,19.47,0,0,1,5.48-14.06A34.54,34.54,0,0,1,743.38,180,67,67,0,0,1,763.77,177a60.5,60.5,0,0,1,19.89,3.19,36.5,36.5,0,0,1,14.86,9.16,20.26,20.26,0,0,1,5.66,14.43v1.27h-22.8v-1a7.68,7.68,0,0,0-2.54-6,15.92,15.92,0,0,0-6.57-3.43,31.89,31.89,0,0,0-8.5-1.11,45.66,45.66,0,0,0-8.16.76,18.29,18.29,0,0,0-7,2.63,5.92,5.92,0,0,0-2.81,5.21,6,6,0,0,0,2.9,5.18,25.14,25.14,0,0,0,8.06,3.31q5.18,1.32,11.92,2.35a130.59,130.59,0,0,1,12.93,2.63,58.07,58.07,0,0,1,12,4.46,25.33,25.33,0,0,1,8.81,7.3,18,18,0,0,1,3.37,11.11,20.19,20.19,0,0,1-3.5,12,27.24,27.24,0,0,1-9.51,8.16,48.53,48.53,0,0,1-13.55,4.75A78.91,78.91,0,0,1,763.59,264.85Z"/><path class="cls-2" d="M865.27,264.77q-14.73,0-25.95-5.62a43.35,43.35,0,0,1-17.57-15.58,41.41,41.41,0,0,1-6.36-22.79A41,41,0,0,1,821.75,198a43.43,43.43,0,0,1,17.57-15.42Q850.54,177,865.27,177t26,5.58A43.37,43.37,0,0,1,908.79,198a41,41,0,0,1,6.36,22.75,41.41,41.41,0,0,1-6.36,22.79,43.29,43.29,0,0,1-17.57,15.58Q880,264.77,865.27,264.77Zm0-17.13a28,28,0,0,0,13.94-3.35,23.69,23.69,0,0,0,9.29-9.36,28.77,28.77,0,0,0,3.33-14.15,28.28,28.28,0,0,0-3.33-14.06,23.32,23.32,0,0,0-9.29-9.21,31.33,31.33,0,0,0-27.83,0,23.19,23.19,0,0,0-9.34,9.21,28.28,28.28,0,0,0-3.33,14.06A28.77,28.77,0,0,0,842,234.93a23.56,23.56,0,0,0,9.34,9.36A28.05,28.05,0,0,0,865.27,247.64Z"/></svg>